<?xml version="1.0" encoding="UTF-8" standalone="no"?>
<!DOCTYPE svg PUBLIC "-//W3C//DTD SVG 1.1//EN"
 "http://www.w3.org/Graphics/SVG/1.1/DTD/svg11.dtd">
<!-- Generated by graphviz version 2.38.0 (20140413.2041)
 -->
<!-- Title: %3 Pages: 1 -->
<svg width="138pt" height="189pt"
 viewBox="0.00 0.00 137.61 189.04" xmlns="http://www.w3.org/2000/svg" xmlns:xlink="http://www.w3.org/1999/xlink">
<g id="graph0" class="graph" transform="scale(1 1) rotate(0) translate(81.9638 81.2478)">
<title>%3</title>
<polygon fill="white" stroke="none" points="-81.9638,107.796 -81.9638,-81.2478 55.6505,-81.2478 55.6505,107.796 -81.9638,107.796"/>
<!-- i0 -->
<g id="node1" class="node"><title>i0</title>
<ellipse fill="none" stroke="black" cx="-47.0485" cy="-53.1395" rx="3.5" ry="3.5"/>
</g>
<!-- g2u0 -->
<g id="node2" class="node"><title>g2u0</title>
</g>
<!-- i0&#45;&gt;g2u0 -->
<g id="edge1" class="edge"><title>i0&#45;&gt;g2u0</title>
<path fill="none" stroke="grey" d="M-50.0023,-55.666C-54.7723,-59.746 -64.2128,-67.8209 -69.9253,-72.707"/>
<polygon fill="grey" stroke="grey" points="-73.8824,-76.0918 -71.5453,-71.1319 -71.9826,-74.4667 -70.0828,-72.8417 -70.0828,-72.8417 -70.0828,-72.8417 -71.9826,-74.4667 -68.6202,-74.5516 -73.8824,-76.0918 -73.8824,-76.0918"/>
<text text-anchor="middle" x="-68.9638" y="-54.5865" font-family="Times New Roman,serif" font-size="12.00">boy</text>
</g>
<!-- i1 -->
<g id="node3" class="node"><title>i1</title>
<ellipse fill="none" stroke="black" cx="24.7689" cy="67.0793" rx="3.5" ry="3.5"/>
</g>
<!-- g5u0 -->
<g id="node6" class="node"><title>g5u0</title>
</g>
<!-- i1&#45;&gt;g5u0 -->
<g id="edge2" class="edge"><title>i1&#45;&gt;g5u0</title>
<path fill="none" stroke="grey" d="M25.0243,70.6843C25.4654,76.9106 26.3743,89.7389 26.9113,97.3181"/>
<polygon fill="grey" stroke="grey" points="27.2933,102.709 29.1842,97.5622 27.1165,100.215 26.9398,97.7213 26.9398,97.7213 26.9398,97.7213 27.1165,100.215 24.6954,97.8804 27.2933,102.709 27.2933,102.709"/>
<text text-anchor="middle" x="16.9678" y="80.6012" font-family="Times New Roman,serif" font-size="12.00">dog</text>
</g>
<!-- g3a0 -->
<g id="node4" class="node"><title>g3a0</title>
<ellipse fill="none" stroke="black" cx="18.4437" cy="-10.6576" rx="3.5" ry="3.5"/>
</g>
<!-- g3a0&#45;&gt;i0 -->
<g id="edge5" class="edge"><title>g3a0&#45;&gt;i0</title>
<path fill="none" stroke="grey" d="M15.2848,-12.7066C5.36292,-19.1425 -25.3634,-39.0733 -39.63,-48.3274"/>
<polygon fill="grey" stroke="grey" points="-44.0723,-51.209 -41.102,-46.6003 -41.9749,-49.8485 -39.8775,-48.4879 -39.8775,-48.4879 -39.8775,-48.4879 -41.9749,-49.8485 -38.6531,-50.3756 -44.0723,-51.209 -44.0723,-51.209"/>
<text text-anchor="middle" x="-17.6726" y="-33.917" font-family="Times New Roman,serif" font-size="12.00">ag</text>
</g>
<!-- g3a0&#45;&gt;i1 -->
<g id="edge4" class="edge"><title>g3a0&#45;&gt;i1</title>
<path fill="none" stroke="grey" d="M18.7487,-6.90817C19.707,4.8688 22.6745,41.3399 24.0524,58.2738"/>
<polygon fill="grey" stroke="grey" points="24.4815,63.5467 26.3185,58.3806 24.2787,61.0549 24.0759,58.5632 24.0759,58.5632 24.0759,58.5632 24.2787,61.0549 21.8333,58.7457 24.4815,63.5467 24.4815,63.5467"/>
<text text-anchor="middle" x="16.9006" y="22.2828" font-family="Times New Roman,serif" font-size="12.00">th</text>
</g>
<!-- g3u0 -->
<g id="node5" class="node"><title>g3u0</title>
</g>
<!-- g3a0&#45;&gt;g3u0 -->
<g id="edge3" class="edge"><title>g3a0&#45;&gt;g3u0</title>
<path fill="none" stroke="grey" d="M21.6993,-12.566C27.4394,-15.9309 39.3925,-22.9379 46.1735,-26.9129"/>
<polygon fill="grey" stroke="grey" points="50.6202,-29.5196 45.1688,-28.932 48.4635,-28.2552 46.3067,-26.9909 46.3067,-26.9909 46.3067,-26.9909 48.4635,-28.2552 47.4446,-25.0498 50.6202,-29.5196 50.6202,-29.5196"/>
<text text-anchor="middle" x="16.9364" y="-23.1395" font-family="Times New Roman,serif" font-size="12.00">walked</text>
</g>
</g>
</svg>